# Blender 3.4.1
# www.blender.org
mtllib enport.mtl
o Cube
v -1.011919 -0.644606 0.835086
v -1.011919 0.691722 0.835086
v -1.011919 -0.644606 -0.883270
v -1.011919 0.691722 -0.883270
v 0.706568 -0.644606 0.835086
v 0.706568 0.691722 0.835086
v 0.706568 -0.644606 -0.883270
v 0.706568 0.691722 -0.883270
v 0.706568 -0.539368 0.835086
v 0.706568 -0.539368 -0.883270
v -1.011919 -0.539368 -0.883270
v -1.011919 -0.539368 0.835086
v -1.011919 -0.644606 0.755548
v -1.011919 -0.644606 -0.754637
v -1.011919 0.691722 -0.754637
v -1.011919 0.691722 0.755548
v 0.706568 -0.644606 -0.754637
v 0.706568 -0.644606 0.755548
v 0.706568 0.691722 0.755548
v 0.706568 0.691722 -0.754637
v 0.706568 -0.539368 0.755548
v 0.706568 -0.539368 -0.754637
v -1.011919 -0.539368 -0.754637
v -1.011919 -0.539368 0.755548
v 0.706568 0.587926 -0.883270
v 0.706568 0.587926 0.835086
v -1.011919 0.587926 -0.754637
v -1.011919 0.587926 -0.883270
v 0.706568 0.587926 0.755548
v -1.011919 0.587926 0.835086
v 0.706568 -0.539368 0.470248
v 0.706568 -0.539368 -0.469336
v -1.011919 -0.539368 -0.469336
v -1.011919 -0.539368 0.470248
v -1.011919 0.691722 0.470248
v -1.011919 0.691722 -0.469336
v 0.706568 0.691722 -0.469336
v 0.706568 0.691722 0.470248
v 0.706568 -0.644606 0.470248
v 0.706568 -0.644606 -0.469336
v -1.011919 -0.644606 -0.469336
v -1.011919 -0.644606 0.470248
v 0.706568 0.587926 -0.754637
v -1.011919 0.587926 0.755548
v 0.706568 0.587926 -0.469336
v 0.706568 0.587926 0.470248
v -1.011919 0.587926 0.470248
v -1.011919 0.587926 -0.469336
v 0.706568 0.288150 0.755548
v -1.011919 0.288150 -0.883270
v -1.011919 0.288150 -0.754637
v 0.706568 0.288150 0.835086
v 0.706568 0.288150 -0.883270
v 0.706568 0.288150 -0.754637
v 0.706568 0.288150 -0.469336
v -1.011919 0.288150 0.835086
v -1.011919 0.288150 0.470248
v -1.011919 0.288150 0.755548
v 0.706568 0.288150 0.470248
v -1.011919 0.288150 -0.469336
v -0.837027 -0.539368 0.755548
v -0.837027 -0.539368 -0.754637
v -0.837027 -0.539368 0.470248
v -0.837027 -0.539368 -0.469336
v -0.837027 0.691722 0.470248
v -0.837027 0.587926 -0.469336
v -0.837027 0.587926 0.470248
v -0.837027 0.288150 0.755548
v -0.837027 0.288150 -0.754637
v -0.837027 0.288150 -0.469336
v -0.837027 0.288150 0.470248
vn -0.0000 1.0000 -0.0000
vn -0.0000 -0.0000 -1.0000
vn -1.0000 -0.0000 -0.0000
vn -0.0000 -0.0000 1.0000
vn 1.0000 -0.0000 -0.0000
vn -0.0000 -1.0000 -0.0000
vt 0.375000 0.000000
vt 0.125000 0.750000
vt 0.375000 1.000000
vt 0.625000 1.000000
vt 0.875000 0.750000
vt 0.625000 0.000000
vt 0.125000 0.500000
vt 0.375000 0.250000
vt 0.875000 0.500000
vt 0.625000 0.250000
vt 0.375000 0.750000
vt 0.625000 0.750000
vt 0.375000 0.500000
vt 0.625000 0.500000
vt 0.394688 0.750000
vt 0.394688 0.500000
vt 0.394688 0.250000
vt 0.394688 1.000000
vt 0.394688 0.000000
vt 0.125000 0.738428
vt 0.375000 0.011572
vt 0.375000 0.231285
vt 0.125000 0.518715
vt 0.875000 0.518715
vt 0.625000 0.231285
vt 0.875000 0.738428
vt 0.625000 0.011572
vt 0.375000 0.518715
vt 0.375000 0.738428
vt 0.625000 0.738428
vt 0.625000 0.518715
vt 0.394688 0.738428
vt 0.394688 0.518715
vt 0.394688 0.231285
vt 0.394688 0.011572
vt 0.605582 0.500000
vt 0.605582 0.750000
vt 0.605582 0.231285
vt 0.605582 0.250000
vt 0.605582 0.738428
vt 0.605582 0.000000
vt 0.605582 1.000000
vt 0.394688 0.696921
vt 0.394688 0.560222
vt 0.394688 0.189778
vt 0.394688 0.053079
vt 0.875000 0.696921
vt 0.625000 0.053079
vt 0.875000 0.560222
vt 0.625000 0.189778
vt 0.625000 0.560222
vt 0.625000 0.696921
vt 0.375000 0.696921
vt 0.375000 0.560222
vt 0.375000 0.189778
vt 0.125000 0.560222
vt 0.375000 0.053079
vt 0.125000 0.696921
vt 0.605582 0.518715
vt 0.605582 0.011572
vt 0.605582 0.560222
vt 0.605582 0.696921
vt 0.605582 0.053079
vt 0.605582 0.189778
vt 0.549500 0.738428
vt 0.549500 0.250000
vt 0.549500 0.231285
vt 0.549500 0.750000
vt 0.549500 0.500000
vt 0.549500 0.518715
vt 0.549500 0.560222
vt 0.549500 1.000000
vt 0.549500 0.000000
vt 0.549500 0.053079
vt 0.549500 0.011572
vt 0.549500 0.696921
vt 0.549500 0.189778
vt 0.394688 0.738428
vt 0.394688 0.518715
vt 0.394688 0.696921
vt 0.394688 0.560222
vt 0.625000 0.696921
vt 0.605582 0.560222
vt 0.605582 0.696921
vt 0.549500 0.738428
vt 0.549500 0.518715
vt 0.549500 0.560222
vt 0.549500 0.696921
s 0
f 8/14/1 4/9/1 15/24/1 20/31/1
f 28/39/2 4/10/2 8/14/2 25/36/2
f 1/1/3 12/19/3 24/35/3 13/21/3
f 26/37/4 6/12/4 2/4/4 30/42/4
f 27/38/3 15/25/3 4/10/3 28/39/3
f 25/36/5 8/14/5 20/31/5 43/59/5
f 19/30/1 16/26/1 2/5/1 6/12/1
f 13/20/6 18/29/6 5/11/6 1/2/6
f 29/40/5 19/30/5 6/12/5 26/37/5
f 3/7/6 7/13/6 17/28/6 14/23/6
f 18/29/6 13/20/6 42/58/6 39/53/6
f 37/51/5 45/61/5 43/59/5 20/31/5
f 57/74/3 34/46/3 24/35/3 58/75/3
f 16/26/1 19/30/1 38/52/1 35/47/1
f 30/41/3 2/6/3 16/27/3 44/60/3
f 23/34/3 14/22/3 41/55/3 33/45/3
f 21/32/5 18/29/5 39/53/5 31/43/5
f 18/29/5 21/32/5 9/15/5 5/11/5
f 7/13/5 10/16/5 22/33/5 17/28/5
f 14/22/3 23/34/3 11/17/3 3/8/3
f 5/11/4 9/15/4 12/18/4 1/3/4
f 3/8/2 11/17/2 10/16/2 7/13/2
f 32/44/5 40/54/5 17/28/5 22/33/5
f 34/46/3 42/57/3 13/21/3 24/35/3
f 51/67/3 23/34/3 33/45/3 60/77/3
f 55/71/4 45/61/4 66/83/4 70/87/4
f 40/54/6 41/56/6 14/23/6 17/28/6
f 36/49/1 37/51/1 20/31/1 15/24/1
f 45/61/5 37/51/5 38/52/5 46/62/5
f 47/63/3 35/48/3 36/50/3 48/64/3
f 42/57/3 34/46/3 33/45/3 41/55/3
f 40/54/5 32/44/5 31/43/5 39/53/5
f 41/56/6 40/54/6 39/53/6 42/58/6
f 37/51/1 36/49/1 35/47/1 38/52/1
f 22/33/4 54/70/4 69/86/4 62/79/4
f 57/74/3 47/63/3 48/64/3 60/77/3
f 31/43/1 32/44/1 64/81/1 63/80/1
f 19/30/5 29/40/5 46/62/5 38/52/5
f 15/25/3 27/38/3 48/64/3 36/50/3
f 56/73/3 30/41/3 44/60/3 58/75/3
f 35/48/3 47/63/3 44/60/3 16/27/3
f 49/65/5 29/40/5 26/37/5 52/68/5
f 53/69/5 25/36/5 43/59/5 54/70/5
f 51/67/3 27/38/3 28/39/3 50/66/3
f 52/68/4 26/37/4 30/42/4 56/72/4
f 50/66/2 28/39/2 25/36/2 53/69/2
f 11/17/2 50/66/2 53/69/2 10/16/2
f 9/15/4 52/68/4 56/72/4 12/18/4
f 23/34/3 51/67/3 50/66/3 11/17/3
f 10/16/5 53/69/5 54/70/5 22/33/5
f 21/32/5 49/65/5 52/68/5 9/15/5
f 12/19/3 56/73/3 58/75/3 24/35/3
f 21/32/1 31/43/1 63/80/1 61/78/1
f 34/46/3 57/74/3 60/77/3 33/45/3
f 45/61/5 55/71/5 54/70/5 43/59/5
f 29/40/5 49/65/5 59/76/5 46/62/5
f 27/38/3 51/67/3 60/77/3 48/64/3
f 47/63/3 57/74/3 58/75/3 44/60/3
f 68/85/5 61/78/5 63/80/5 71/88/5
f 70/87/5 64/81/5 62/79/5 69/86/5
f 70/87/5 66/83/5 67/84/5 71/88/5
f 64/81/5 70/87/5 71/88/5 63/80/5
f 45/61/6 46/62/6 67/84/6 66/83/6
f 46/62/4 38/52/4 65/82/4 67/84/4
f 54/70/6 55/71/6 70/87/6 69/86/6
f 46/62/2 59/76/2 71/88/2 67/84/2
f 49/65/2 21/32/2 61/78/2 68/85/2
f 32/44/1 22/33/1 62/79/1 64/81/1
f 59/76/6 49/65/6 68/85/6 71/88/6
